<svg width="24" height="24" viewBox="0 0 24 24" fill="none" xmlns="http://www.w3.org/2000/svg">
<g id="Group 2">
<path id="Oval" fill-rule="evenodd" clip-rule="evenodd" d="M12 24C18.6274 24 24 18.6274 24 12C24 5.37258 18.6274 0 12 0C5.37258 0 0 5.37258 0 12C0 18.6274 5.37258 24 12 24Z" fill="black"/>
<path id="+" d="M12.5882 11.4118H16.4118C16.7366 11.4118 17 11.6751 17 12C17 12.3249 16.7366 12.5882 16.4118 12.5882H12.5882V16.4118C12.5882 16.7366 12.3249 17 12 17C11.6751 17 11.4118 16.7366 11.4118 16.4118V12.5882H7.58824C7.26336 12.5882 7 12.3249 7 12C7 11.6751 7.26336 11.4118 7.58824 11.4118H11.4118V7.58824C11.4118 7.26336 11.6751 7 12 7C12.3249 7 12.5882 7.26336 12.5882 7.58824V11.4118Z" fill="white"/>
</g>
</svg>
