<svg width="20" height="20" viewBox="0 0 20 20" fill="none" xmlns="http://www.w3.org/2000/svg">
<g id="heart-outline" opacity="0.2">
<rect id="Rectangle" opacity="0.01" width="20" height="20" fill="black"/>
<path id="Shape" fill-rule="evenodd" clip-rule="evenodd" d="M9.40834 17.2583C9.5656 17.4143 9.7785 17.5013 10 17.5C10.2215 17.5013 10.4344 17.4143 10.5917 17.2583L17.0667 10.775C18.757 9.06696 18.757 6.31637 17.0667 4.60833C15.3624 2.90886 12.6043 2.90886 10.9 4.60833L10 5.50833L9.10001 4.60833C7.39572 2.90886 4.63762 2.90886 2.93334 4.60833C1.24296 6.31637 1.24296 9.06696 2.93334 10.775L9.40834 17.2583ZM4.11667 5.78333C4.61991 5.27886 5.30412 4.99677 6.01667 5C6.72923 4.99677 7.41343 5.27886 7.91667 5.78333L9.40834 7.28333C9.56481 7.44109 9.77781 7.52983 10 7.52983C10.2222 7.52983 10.4352 7.44109 10.5917 7.28333L12.0833 5.78333C13.1497 4.77588 14.817 4.77588 15.8833 5.78333C16.9311 6.83659 16.9311 8.53841 15.8833 9.59167L10 15.4833L4.11667 9.59167C3.06893 8.53841 3.06893 6.83659 4.11667 5.78333Z" fill="black"/>
</g>
</svg>
